<svg xmlns="http://www.w3.org/2000/svg" viewBox="0 0 236 44" fill="currentColor">
    <path d="M161.583 34.9776C158.255 34.9776 157.141 33.7515 157.141 30.4192V9.01063H161.85V30.7022H170.139V34.9619H161.583V34.9776Z"/>
    <path d="M188.617 23.9904C188.617 19.9507 185.697 16.9799 181.804 16.9799C177.91 16.9799 175.022 19.9507 175.022 23.9904C175.022 28.03 177.942 31.0322 181.804 31.0322C185.697 31.048 188.617 28.0772 188.617 23.9904ZM188.507 13.176H192.95V34.9776H188.507V32.164C186.984 34.1602 184.441 35.4334 181.364 35.4334C175.147 35.4334 170.296 30.655 170.296 24.0847C170.296 17.5143 175.147 12.7359 181.364 12.7359C184.284 12.7359 186.843 13.8834 188.507 15.9582V13.176Z"/>
    <path d="M214.159 23.9904C214.159 19.9507 211.239 16.9799 207.377 16.9799C203.515 16.9799 200.564 19.9507 200.564 23.9904C200.564 28.03 203.484 31.0322 207.377 31.0322C211.239 31.048 214.159 28.0772 214.159 23.9904ZM218.9 24.0689C218.9 30.6393 214.081 35.4177 207.864 35.4177C204.756 35.4177 202.197 34.1602 200.674 32.1168V34.9776H196.262V9.01063H200.894V15.7224C202.479 13.8676 204.96 12.7202 207.848 12.7202C214.097 12.7202 218.9 17.5458 218.9 24.0689Z"/>
    <path d="M220.376 28.4387H224.929C225.117 30.4349 226.483 31.6295 228.257 31.6295C230.031 31.6295 231.224 30.5607 231.224 29.1146C231.224 27.2284 229.811 26.7097 226.483 25.8137C223.155 24.8863 220.596 22.9215 220.596 19.1333C220.596 15.3452 223.563 12.7202 227.959 12.7202C232.354 12.7202 235.149 15.2352 235.479 19.3534H230.926C230.816 17.5301 229.56 16.4612 227.959 16.4612C226.248 16.4612 225.149 17.5301 225.149 18.8347C225.149 20.5009 226.216 21.0667 229.623 22.0255C233.029 22.9844 235.73 25.0592 235.73 28.7373C235.73 32.8556 232.731 35.4177 228.21 35.4177C223.689 35.4177 220.643 32.8241 220.376 28.4387Z"/>
    <path d="M70.6077 30.8908C65.7096 30.8908 61.7221 26.8983 61.7221 21.9941C61.7221 17.0899 65.7096 13.0974 70.6077 13.0974C75.5058 13.0974 79.4934 17.0899 79.4934 21.9941C79.4934 23.9118 78.8811 25.688 77.845 27.1498L75.8826 25.185H70.1367L74.7837 29.8376C73.5434 30.4978 72.1148 30.8908 70.6077 30.8908ZM85.6787 34.9776L81.0789 30.3721C82.9157 28.0772 84.0147 25.1535 84.0147 21.9941C84.0147 14.575 78.0176 8.57051 70.6077 8.57051C63.1978 8.57051 57.2008 14.575 57.2008 21.9941C57.2008 29.4132 63.1978 35.4177 70.6077 35.4177C73.3707 35.4177 75.9454 34.5846 78.0804 33.1385L79.9172 34.9776H85.6787Z"/>
    <path d="M114.879 30.8908C112.728 30.8908 111.802 30.6393 111.802 28.4858L111.833 18.9133H114.973V14.8422H111.833V9.08922H107.249V28.5487C107.249 33.6729 110.106 34.9619 114.172 34.9619H115.177V30.8908H114.879Z"/>
    <path d="M134.864 23.9904C134.864 19.9507 131.944 16.9799 128.05 16.9799C124.157 16.9799 121.268 19.9507 121.268 23.9904C121.268 28.03 124.188 31.0322 128.05 31.0322C131.928 31.048 134.864 28.0772 134.864 23.9904ZM134.754 13.176H139.197V34.9776H134.754V32.164C133.231 34.1602 130.688 35.4334 127.611 35.4334C121.394 35.4334 116.543 30.655 116.543 24.0847C116.543 17.5143 121.394 12.7359 127.611 12.7359C130.531 12.7359 133.09 13.8834 134.754 15.9582V13.176Z"/>
    <path d="M153.812 12.9403V17.4986H153.546C150.327 17.4986 147.109 18.6775 147.109 24.9177V34.9619H142.525V13.176H146.889V16.3983C148.192 14.1663 150.547 12.956 153.624 12.956H153.812V12.9403Z"/>
    <path d="M87.1545 27.1183H91.8956C92.1624 29.9005 93.8579 31.378 96.15 31.378C98.442 31.378 99.745 29.9634 99.745 28.0772C99.745 25.5936 98.1124 24.7448 94.376 23.6603C90.5611 22.5914 87.5312 20.5009 87.5312 16.0525C87.5312 11.6042 90.8594 8.57051 95.7889 8.57051C100.718 8.57051 103.78 11.4313 104.188 16.3197H99.4782C99.2898 13.9148 97.7356 12.6102 95.7732 12.6102C93.8108 12.6102 92.288 13.9148 92.288 15.7224C92.288 17.9545 93.7637 18.6932 97.3588 19.7935C101.205 20.941 104.549 23.4245 104.549 27.6528C104.549 32.5098 101.142 35.402 96.1029 35.402C90.8908 35.4177 87.5155 32.3369 87.1545 27.1183Z"/>
    <path d="M22.2548 2.73895L24.1701 14.2135L36.6194 5.37966C28.3617 -1.80369 16.0537 -1.78797 7.79605 5.39538L20.1041 14.1034L22.2548 2.73895Z"/>
    <path d="M41.4704 21.9312L30.0572 24.0218L38.8487 36.408C45.9917 28.1715 46.0231 15.8953 38.9115 7.64312L30.2927 20.0765L41.4704 21.9312Z"/>
    <path d="M3.00786 21.9941L14.0913 20.1236L5.53539 7.69028C-1.51345 15.9425 -1.48206 28.1558 5.61389 36.3765L14.3111 24.0689L3.00786 21.9941Z"/>
    <path d="M44.2177 44L24.123 30.1677L22.2391 41.0449L22.2077 41.2021L20.2297 30.2306L7.90594 38.6871C12.0191 42.2238 17.137 44 22.2391 44H44.2177Z"/>
</svg>